# Blender v2.78 (sub 0) OBJ File: ''
# www.blender.org
mtllib Böller 3 zündschnur.mtl
o Cylinder.001
v 0.000000 0.005000 -0.906107
v 0.000000 0.005000 -0.506107
v 0.000975 0.004904 -0.906107
v 0.000975 0.004904 -0.506107
v 0.001913 0.004619 -0.906107
v 0.001913 0.004619 -0.506107
v 0.002778 0.004157 -0.906107
v 0.002778 0.004157 -0.506107
v 0.003536 0.003536 -0.906107
v 0.003536 0.003536 -0.506107
v 0.004157 0.002778 -0.906107
v 0.004157 0.002778 -0.506107
v 0.004619 0.001913 -0.906107
v 0.004619 0.001913 -0.506107
v 0.004904 0.000975 -0.906107
v 0.004904 0.000975 -0.506107
v 0.005000 0.000000 -0.906107
v 0.005000 -0.000000 -0.506107
v 0.004904 -0.000975 -0.906107
v 0.004904 -0.000975 -0.506107
v 0.004619 -0.001913 -0.906107
v 0.004619 -0.001913 -0.506107
v 0.004157 -0.002778 -0.906107
v 0.004157 -0.002778 -0.506107
v 0.003536 -0.003536 -0.906107
v 0.003536 -0.003536 -0.506107
v 0.002778 -0.004157 -0.906107
v 0.002778 -0.004157 -0.506107
v 0.001913 -0.004619 -0.906107
v 0.001913 -0.004619 -0.506107
v 0.000975 -0.004904 -0.906107
v 0.000975 -0.004904 -0.506107
v -0.000000 -0.005000 -0.906107
v -0.000000 -0.005000 -0.506107
v -0.000975 -0.004904 -0.906107
v -0.000975 -0.004904 -0.506107
v -0.001913 -0.004619 -0.906107
v -0.001913 -0.004619 -0.506107
v -0.002778 -0.004157 -0.906107
v -0.002778 -0.004157 -0.506107
v -0.003536 -0.003536 -0.906107
v -0.003536 -0.003536 -0.506107
v -0.004157 -0.002778 -0.906107
v -0.004157 -0.002778 -0.506107
v -0.004619 -0.001913 -0.906107
v -0.004619 -0.001913 -0.506107
v -0.004904 -0.000975 -0.906107
v -0.004904 -0.000975 -0.506107
v -0.005000 0.000000 -0.906107
v -0.005000 -0.000000 -0.506107
v -0.004904 0.000975 -0.906107
v -0.004904 0.000975 -0.506107
v -0.004619 0.001913 -0.906107
v -0.004619 0.001913 -0.506107
v -0.004157 0.002778 -0.906107
v -0.004157 0.002778 -0.506107
v -0.003536 0.003536 -0.906107
v -0.003536 0.003536 -0.506107
v -0.002778 0.004157 -0.906107
v -0.002778 0.004157 -0.506107
v -0.001913 0.004619 -0.906107
v -0.001913 0.004619 -0.506107
v -0.000975 0.004904 -0.906107
v -0.000975 0.004904 -0.506107
vt 0.9566 0.1947
vt 0.9566 0.5711
vt 0.9577 0.5711
vt 0.9577 0.1947
vt 0.9588 0.5711
vt 0.9588 0.1947
vt 0.9599 0.5711
vt 0.9599 0.1947
vt 0.9609 0.5711
vt 0.9609 0.1947
vt 0.9617 0.5711
vt 0.9617 0.1947
vt 0.9616 0.2026
vt 0.9655 0.9287
vt 0.9632 0.9287
vt 0.9593 0.2026
vt 0.9606 0.9287
vt 0.9567 0.2026
vt 0.9579 0.9288
vt 0.9540 0.2027
vt 0.9551 0.9288
vt 0.9512 0.2027
vt 0.9523 0.9288
vt 0.9484 0.2027
vt 0.9497 0.9289
vt 0.9458 0.2028
vt 0.9474 0.9289
vt 0.9435 0.2028
vt 0.9617 0.9475
vt 0.9617 0.5711
vt 0.9607 0.5711
vt 0.9607 0.9475
vt 0.9597 0.5711
vt 0.9597 0.9475
vt 0.9585 0.5711
vt 0.9585 0.9475
vt 0.9574 0.5711
vt 0.9574 0.9475
vt 0.9562 0.5711
vt 0.9562 0.9475
vt 0.9552 0.5711
vt 0.9552 0.9475
vt 0.9542 0.5711
vt 0.9542 0.9475
vt 0.9534 0.5711
vt 0.9534 0.9475
vt 0.9525 0.5711
vt 0.9525 0.9475
vt 0.9514 0.5711
vt 0.9514 0.9475
vt 0.9503 0.5711
vt 0.9503 0.9475
vt 0.9491 0.5711
vt 0.9491 0.9475
vt 0.9480 0.5711
vt 0.9480 0.9475
vt 0.9469 0.5711
vt 0.9469 0.9475
vt 0.9460 0.5711
vt 0.9460 0.9475
vt 0.9452 0.5711
vt 0.9452 0.9475
vt 0.9526 0.1947
vt 0.9526 0.5711
vt 0.9534 0.5711
vt 0.9534 0.1947
vt 0.9544 0.5711
vt 0.9544 0.1947
vt 0.9539 0.8370
vt 0.9517 0.8366
vt 0.9496 0.8359
vt 0.9478 0.8349
vt 0.9462 0.8336
vt 0.9449 0.8321
vt 0.9441 0.8305
vt 0.9436 0.8287
vt 0.9436 0.8269
vt 0.9441 0.8251
vt 0.9449 0.8235
vt 0.9462 0.8220
vt 0.9478 0.8207
vt 0.9496 0.8197
vt 0.9517 0.8190
vt 0.9539 0.8186
vt 0.9562 0.8186
vt 0.9584 0.8190
vt 0.9604 0.8197
vt 0.9623 0.8207
vt 0.9639 0.8220
vt 0.9651 0.8235
vt 0.9660 0.8251
vt 0.9664 0.8269
vt 0.9664 0.8287
vt 0.9660 0.8305
vt 0.9651 0.8321
vt 0.9639 0.8336
vt 0.9623 0.8349
vt 0.9604 0.8359
vt 0.9584 0.8366
vt 0.9562 0.8370
vt 0.9554 0.5711
vt 0.9554 0.1947
vt 0.9436 0.8104
vt 0.9436 0.8086
vt 0.9441 0.8068
vt 0.9449 0.8051
vt 0.9462 0.8036
vt 0.9478 0.8023
vt 0.9496 0.8013
vt 0.9517 0.8007
vt 0.9539 0.8003
vt 0.9562 0.8003
vt 0.9584 0.8007
vt 0.9604 0.8013
vt 0.9623 0.8023
vt 0.9639 0.8036
vt 0.9651 0.8051
vt 0.9660 0.8068
vt 0.9664 0.8086
vt 0.9664 0.8104
vt 0.9660 0.8121
vt 0.9651 0.8138
vt 0.9639 0.8153
vt 0.9623 0.8166
vt 0.9604 0.8176
vt 0.9584 0.8183
vt 0.9562 0.8186
vt 0.9539 0.8186
vt 0.9517 0.8183
vt 0.9496 0.8176
vt 0.9478 0.8166
vt 0.9462 0.8153
vt 0.9449 0.8138
vt 0.9441 0.8121
vn 0.0980 0.9952 0.0000
vn 0.2903 0.9569 0.0000
vn 0.4714 0.8819 0.0000
vn 0.6344 0.7730 0.0000
vn 0.7730 0.6344 0.0000
vn 0.8819 0.4714 0.0000
vn 0.9569 0.2903 0.0000
vn 0.9952 0.0980 0.0000
vn 0.9952 -0.0980 -0.0000
vn 0.9569 -0.2903 -0.0000
vn 0.8819 -0.4714 -0.0000
vn 0.7730 -0.6344 -0.0000
vn 0.6344 -0.7730 -0.0000
vn 0.4714 -0.8819 -0.0000
vn 0.2903 -0.9569 -0.0000
vn 0.0980 -0.9952 -0.0000
vn -0.0980 -0.9952 -0.0000
vn -0.2903 -0.9569 -0.0000
vn -0.4714 -0.8819 -0.0000
vn -0.6344 -0.7730 -0.0000
vn -0.7730 -0.6344 -0.0000
vn -0.8819 -0.4714 -0.0000
vn -0.9569 -0.2903 -0.0000
vn -0.9952 -0.0980 -0.0000
vn -0.9952 0.0980 0.0000
vn -0.9569 0.2903 0.0000
vn -0.8819 0.4714 0.0000
vn -0.7730 0.6344 0.0000
vn -0.6344 0.7730 0.0000
vn -0.4714 0.8819 0.0000
vn -0.0000 0.0000 1.0000
vn -0.2903 0.9569 0.0000
vn -0.0980 0.9952 0.0000
vn -0.0000 0.0000 -1.0000
usemtl None
s off
f 1/1/1 2/2/1 4/3/1 3/4/1
f 3/4/2 4/3/2 6/5/2 5/6/2
f 5/6/3 6/5/3 8/7/3 7/8/3
f 7/8/4 8/7/4 10/9/4 9/10/4
f 9/10/5 10/9/5 12/11/5 11/12/5
f 11/13/6 12/14/6 14/15/6 13/16/6
f 13/16/7 14/15/7 16/17/7 15/18/7
f 15/18/8 16/17/8 18/19/8 17/20/8
f 17/20/9 18/19/9 20/21/9 19/22/9
f 19/22/10 20/21/10 22/23/10 21/24/10
f 21/24/11 22/23/11 24/25/11 23/26/11
f 23/26/12 24/25/12 26/27/12 25/28/12
f 25/29/13 26/30/13 28/31/13 27/32/13
f 27/32/14 28/31/14 30/33/14 29/34/14
f 29/34/15 30/33/15 32/35/15 31/36/15
f 31/36/16 32/35/16 34/37/16 33/38/16
f 33/38/17 34/37/17 36/39/17 35/40/17
f 35/40/18 36/39/18 38/41/18 37/42/18
f 37/42/19 38/41/19 40/43/19 39/44/19
f 39/44/20 40/43/20 42/45/20 41/46/20
f 41/46/21 42/45/21 44/47/21 43/48/21
f 43/48/22 44/47/22 46/49/22 45/50/22
f 45/50/23 46/49/23 48/51/23 47/52/23
f 47/52/24 48/51/24 50/53/24 49/54/24
f 49/54/25 50/53/25 52/55/25 51/56/25
f 51/56/26 52/55/26 54/57/26 53/58/26
f 53/58/27 54/57/27 56/59/27 55/60/27
f 55/60/28 56/59/28 58/61/28 57/62/28
f 57/63/29 58/64/29 60/65/29 59/66/29
f 59/66/30 60/65/30 62/67/30 61/68/30
f 4/69/31 2/70/31 64/71/31 62/72/31 60/73/31 58/74/31 56/75/31 54/76/31 52/77/31 50/78/31 48/79/31 46/80/31 44/81/31 42/82/31 40/83/31 38/84/31 36/85/31 34/86/31 32/87/31 30/88/31 28/89/31 26/90/31 24/91/31 22/92/31 20/93/31 18/94/31 16/95/31 14/96/31 12/97/31 10/98/31 8/99/31 6/100/31
f 61/68/32 62/67/32 64/101/32 63/102/32
f 63/102/33 64/101/33 2/2/33 1/1/33
f 1/103/34 3/104/34 5/105/34 7/106/34 9/107/34 11/108/34 13/109/34 15/110/34 17/111/34 19/112/34 21/113/34 23/114/34 25/115/34 27/116/34 29/117/34 31/118/34 33/119/34 35/120/34 37/121/34 39/122/34 41/123/34 43/124/34 45/125/34 47/126/34 49/127/34 51/128/34 53/129/34 55/130/34 57/131/34 59/132/34 61/133/34 63/134/34
